<?xml version="1.0" standalone="no"?>
<!DOCTYPE svg PUBLIC "-//W3C//DTD SVG 20010904//EN"
 "http://www.w3.org/TR/2001/REC-SVG-20010904/DTD/svg10.dtd">
<svg version="1.0" xmlns="http://www.w3.org/2000/svg"
 width="171.000000pt" height="171.000000pt" viewBox="0 0 171.000000 171.000000"
 preserveAspectRatio="xMidYMid meet">
<metadata>
Created by potrace 1.11, written by Peter Selinger 2001-2013
</metadata>
<g transform="translate(0.000000,171.000000) scale(0.100000,-0.100000)"
fill="#000000" stroke="none">
<path d="M785 1654 c-152 -25 -286 -77 -386 -151 -98 -73 -128 -121 -44 -72
42 25 182 58 245 58 70 0 199 -33 266 -68 112 -58 233 -185 295 -311 56 -111
96 -283 86 -374 -13 -128 -103 -257 -219 -316 -56 -28 -69 -30 -165 -30 -108
0 -141 10 -216 62 -72 51 -23 -29 66 -107 28 -25 88 -63 132 -83 l80 -36 145
0 145 0 95 45 c144 69 221 153 284 309 91 229 65 507 -69 715 -41 63 -145 173
-207 219 -59 43 -179 95 -264 117 -81 19 -216 31 -269 23z"/>
<path d="M450 1436 c-170 -65 -293 -190 -342 -350 -19 -60 -22 -93 -22 -221 1
-151 4 -169 49 -293 8 -23 26 -60 40 -82 14 -22 25 -42 25 -46 0 -10 73 -97
125 -147 135 -132 304 -203 505 -214 92 -5 119 -2 213 21 125 31 265 95 252
116 -2 4 -31 -2 -62 -13 -90 -31 -244 -29 -346 6 -101 34 -155 67 -225 136
-79 78 -135 176 -162 286 -26 104 -24 189 8 321 51 211 216 414 336 414 33 0
14 22 -41 48 -52 23 -72 26 -188 29 -91 2 -141 -1 -165 -11z"/>
</g>
</svg>
